<mxfile host="Electron" agent="Mozilla/5.0 (Windows NT 10.0; Win64; x64) AppleWebKit/537.36 (KHTML, like Gecko) draw.io/26.2.15 Chrome/134.0.6998.205 Electron/35.2.1 Safari/537.36" version="26.2.15">
  <diagram name="Page-1" id="1mJDodwC2UQsbR1L6zvY">
    <mxGraphModel dx="786" dy="516" grid="1" gridSize="10" guides="1" tooltips="1" connect="1" arrows="1" fold="1" page="1" pageScale="1" pageWidth="827" pageHeight="1169" math="0" shadow="0">
      <root>
        <mxCell id="0" />
        <mxCell id="1" parent="0" />
        <mxCell id="lgsPyOXCFTLLYFmnP0r0-1" value="" style="rounded=0;whiteSpace=wrap;html=1;fillColor=none;dashed=1;" parent="1" vertex="1">
          <mxGeometry x="120" y="120" width="180" height="360" as="geometry" />
        </mxCell>
        <mxCell id="lgsPyOXCFTLLYFmnP0r0-2" value="&lt;font style=&quot;font-size: 23px;&quot;&gt;Sources&lt;/font&gt;" style="rounded=1;whiteSpace=wrap;html=1;strokeColor=none;" parent="1" vertex="1">
          <mxGeometry x="145" y="100" width="110" height="40" as="geometry" />
        </mxCell>
        <mxCell id="lgsPyOXCFTLLYFmnP0r0-23" style="edgeStyle=orthogonalEdgeStyle;rounded=0;orthogonalLoop=1;jettySize=auto;html=1;entryX=0;entryY=0.5;entryDx=0;entryDy=0;" parent="1" source="lgsPyOXCFTLLYFmnP0r0-3" target="lgsPyOXCFTLLYFmnP0r0-16" edge="1">
          <mxGeometry relative="1" as="geometry" />
        </mxCell>
        <mxCell id="lgsPyOXCFTLLYFmnP0r0-24" style="edgeStyle=orthogonalEdgeStyle;rounded=0;orthogonalLoop=1;jettySize=auto;html=1;" parent="1" source="lgsPyOXCFTLLYFmnP0r0-3" target="lgsPyOXCFTLLYFmnP0r0-17" edge="1">
          <mxGeometry relative="1" as="geometry" />
        </mxCell>
        <mxCell id="lgsPyOXCFTLLYFmnP0r0-25" style="edgeStyle=orthogonalEdgeStyle;rounded=0;orthogonalLoop=1;jettySize=auto;html=1;entryX=0;entryY=0.5;entryDx=0;entryDy=0;" parent="1" source="lgsPyOXCFTLLYFmnP0r0-3" target="lgsPyOXCFTLLYFmnP0r0-18" edge="1">
          <mxGeometry relative="1" as="geometry" />
        </mxCell>
        <mxCell id="lgsPyOXCFTLLYFmnP0r0-3" value="" style="image;aspect=fixed;html=1;points=[];align=center;fontSize=12;image=img/lib/azure2/general/Folder_Blank.svg;" parent="1" vertex="1">
          <mxGeometry x="165.5" y="190" width="69" height="56.00000000000001" as="geometry" />
        </mxCell>
        <mxCell id="lgsPyOXCFTLLYFmnP0r0-26" style="edgeStyle=orthogonalEdgeStyle;rounded=0;orthogonalLoop=1;jettySize=auto;html=1;entryX=0;entryY=0.75;entryDx=0;entryDy=0;" parent="1" source="lgsPyOXCFTLLYFmnP0r0-4" target="lgsPyOXCFTLLYFmnP0r0-19" edge="1">
          <mxGeometry relative="1" as="geometry" />
        </mxCell>
        <mxCell id="lgsPyOXCFTLLYFmnP0r0-27" style="edgeStyle=orthogonalEdgeStyle;rounded=0;orthogonalLoop=1;jettySize=auto;html=1;entryX=0;entryY=0.75;entryDx=0;entryDy=0;" parent="1" source="lgsPyOXCFTLLYFmnP0r0-4" target="lgsPyOXCFTLLYFmnP0r0-20" edge="1">
          <mxGeometry relative="1" as="geometry" />
        </mxCell>
        <mxCell id="lgsPyOXCFTLLYFmnP0r0-28" style="edgeStyle=orthogonalEdgeStyle;rounded=0;orthogonalLoop=1;jettySize=auto;html=1;entryX=0;entryY=0.75;entryDx=0;entryDy=0;" parent="1" source="lgsPyOXCFTLLYFmnP0r0-4" target="lgsPyOXCFTLLYFmnP0r0-22" edge="1">
          <mxGeometry relative="1" as="geometry" />
        </mxCell>
        <mxCell id="lgsPyOXCFTLLYFmnP0r0-4" value="" style="image;aspect=fixed;html=1;points=[];align=center;fontSize=12;image=img/lib/azure2/general/Folder_Blank.svg;" parent="1" vertex="1">
          <mxGeometry x="170" y="350" width="69" height="56.00000000000001" as="geometry" />
        </mxCell>
        <mxCell id="lgsPyOXCFTLLYFmnP0r0-6" value="ERP" style="whiteSpace=wrap;html=1;verticalAlign=top;labelBackgroundColor=default;strokeColor=none;" parent="1" vertex="1">
          <mxGeometry x="170" y="410" width="50" height="20" as="geometry" />
        </mxCell>
        <mxCell id="lgsPyOXCFTLLYFmnP0r0-11" value="CRM" style="whiteSpace=wrap;html=1;verticalAlign=top;labelBackgroundColor=default;strokeColor=none;" parent="1" vertex="1">
          <mxGeometry x="168" y="250" width="64" height="20" as="geometry" />
        </mxCell>
        <mxCell id="lgsPyOXCFTLLYFmnP0r0-14" value="" style="rounded=0;whiteSpace=wrap;html=1;fillStyle=hatch;" parent="1" vertex="1">
          <mxGeometry x="440" y="120" width="160" height="390" as="geometry" />
        </mxCell>
        <mxCell id="lgsPyOXCFTLLYFmnP0r0-15" value="BRONZE LAYER" style="rounded=1;whiteSpace=wrap;html=1;fillColor=#647687;strokeColor=default;fontColor=#ffffff;" parent="1" vertex="1">
          <mxGeometry x="660" y="70" width="160" height="40" as="geometry" />
        </mxCell>
        <mxCell id="GjvaQLcrxtEalhyeeRgq-12" style="edgeStyle=orthogonalEdgeStyle;rounded=0;orthogonalLoop=1;jettySize=auto;html=1;exitX=1;exitY=0.5;exitDx=0;exitDy=0;" parent="1" source="lgsPyOXCFTLLYFmnP0r0-16" target="GjvaQLcrxtEalhyeeRgq-3" edge="1">
          <mxGeometry relative="1" as="geometry" />
        </mxCell>
        <mxCell id="lgsPyOXCFTLLYFmnP0r0-16" value="crm_cust_info" style="rounded=1;whiteSpace=wrap;html=1;fillColor=#fad7ac;strokeColor=#b46504;" parent="1" vertex="1">
          <mxGeometry x="460" y="158" width="120" height="32" as="geometry" />
        </mxCell>
        <mxCell id="lgsPyOXCFTLLYFmnP0r0-17" value="crm_prd_info" style="rounded=1;whiteSpace=wrap;html=1;fillColor=#fad7ac;strokeColor=#b46504;" parent="1" vertex="1">
          <mxGeometry x="460" y="216" width="120" height="30" as="geometry" />
        </mxCell>
        <mxCell id="GjvaQLcrxtEalhyeeRgq-19" style="edgeStyle=orthogonalEdgeStyle;rounded=0;orthogonalLoop=1;jettySize=auto;html=1;exitX=1;exitY=0.5;exitDx=0;exitDy=0;entryX=0;entryY=0.5;entryDx=0;entryDy=0;" parent="1" source="lgsPyOXCFTLLYFmnP0r0-18" target="GjvaQLcrxtEalhyeeRgq-5" edge="1">
          <mxGeometry relative="1" as="geometry" />
        </mxCell>
        <mxCell id="lgsPyOXCFTLLYFmnP0r0-18" value="crm_sales-details" style="rounded=1;whiteSpace=wrap;html=1;fillColor=#fad7ac;strokeColor=#b46504;" parent="1" vertex="1">
          <mxGeometry x="460" y="270" width="120" height="30" as="geometry" />
        </mxCell>
        <mxCell id="GjvaQLcrxtEalhyeeRgq-23" style="edgeStyle=orthogonalEdgeStyle;rounded=0;orthogonalLoop=1;jettySize=auto;html=1;exitX=1;exitY=0.5;exitDx=0;exitDy=0;entryX=0;entryY=0.5;entryDx=0;entryDy=0;" parent="1" source="lgsPyOXCFTLLYFmnP0r0-19" target="GjvaQLcrxtEalhyeeRgq-6" edge="1">
          <mxGeometry relative="1" as="geometry" />
        </mxCell>
        <mxCell id="lgsPyOXCFTLLYFmnP0r0-19" value="erp_cust_az12" style="rounded=1;whiteSpace=wrap;html=1;fillColor=#fad7ac;strokeColor=#b46504;" parent="1" vertex="1">
          <mxGeometry x="460" y="330" width="120" height="30" as="geometry" />
        </mxCell>
        <mxCell id="GjvaQLcrxtEalhyeeRgq-24" style="edgeStyle=orthogonalEdgeStyle;rounded=0;orthogonalLoop=1;jettySize=auto;html=1;exitX=1;exitY=0.5;exitDx=0;exitDy=0;entryX=0;entryY=0.5;entryDx=0;entryDy=0;" parent="1" source="lgsPyOXCFTLLYFmnP0r0-20" target="GjvaQLcrxtEalhyeeRgq-7" edge="1">
          <mxGeometry relative="1" as="geometry" />
        </mxCell>
        <mxCell id="lgsPyOXCFTLLYFmnP0r0-20" value="erp_loc_a101" style="rounded=1;whiteSpace=wrap;html=1;fillColor=#fad7ac;strokeColor=#b46504;" parent="1" vertex="1">
          <mxGeometry x="460" y="390" width="120" height="30" as="geometry" />
        </mxCell>
        <mxCell id="lgsPyOXCFTLLYFmnP0r0-21" style="edgeStyle=orthogonalEdgeStyle;rounded=0;orthogonalLoop=1;jettySize=auto;html=1;exitX=0.5;exitY=1;exitDx=0;exitDy=0;" parent="1" source="lgsPyOXCFTLLYFmnP0r0-19" target="lgsPyOXCFTLLYFmnP0r0-19" edge="1">
          <mxGeometry relative="1" as="geometry" />
        </mxCell>
        <mxCell id="GjvaQLcrxtEalhyeeRgq-25" style="edgeStyle=orthogonalEdgeStyle;rounded=0;orthogonalLoop=1;jettySize=auto;html=1;exitX=1;exitY=0.5;exitDx=0;exitDy=0;entryX=0;entryY=0.5;entryDx=0;entryDy=0;" parent="1" source="lgsPyOXCFTLLYFmnP0r0-22" target="GjvaQLcrxtEalhyeeRgq-9" edge="1">
          <mxGeometry relative="1" as="geometry" />
        </mxCell>
        <mxCell id="lgsPyOXCFTLLYFmnP0r0-22" value="erp_px_cat_g1v2" style="rounded=1;whiteSpace=wrap;html=1;fillColor=#fad7ac;strokeColor=#b46504;" parent="1" vertex="1">
          <mxGeometry x="460" y="450" width="120" height="30" as="geometry" />
        </mxCell>
        <mxCell id="GjvaQLcrxtEalhyeeRgq-1" value="" style="rounded=0;whiteSpace=wrap;html=1;fillStyle=hatch;" parent="1" vertex="1">
          <mxGeometry x="660" y="120" width="160" height="400" as="geometry" />
        </mxCell>
        <mxCell id="GjvaQLcrxtEalhyeeRgq-2" value="BRONZE LAYER" style="rounded=1;whiteSpace=wrap;html=1;fillColor=#fad7ac;strokeColor=#b46504;" parent="1" vertex="1">
          <mxGeometry x="440" y="70" width="160" height="40" as="geometry" />
        </mxCell>
        <mxCell id="GjvaQLcrxtEalhyeeRgq-3" value="crm_cust_info" style="rounded=1;whiteSpace=wrap;html=1;fillColor=#647687;strokeColor=#314354;fontColor=#ffffff;" parent="1" vertex="1">
          <mxGeometry x="680" y="158" width="120" height="32" as="geometry" />
        </mxCell>
        <mxCell id="GjvaQLcrxtEalhyeeRgq-5" value="crm_sales-details" style="rounded=1;whiteSpace=wrap;html=1;fillColor=#647687;fontColor=#ffffff;strokeColor=#314354;" parent="1" vertex="1">
          <mxGeometry x="680" y="270" width="120" height="30" as="geometry" />
        </mxCell>
        <mxCell id="GjvaQLcrxtEalhyeeRgq-6" value="erp_cust_az12" style="rounded=1;whiteSpace=wrap;html=1;fillColor=#647687;fontColor=#ffffff;strokeColor=#314354;" parent="1" vertex="1">
          <mxGeometry x="680" y="330" width="120" height="30" as="geometry" />
        </mxCell>
        <mxCell id="GjvaQLcrxtEalhyeeRgq-7" value="erp_loc_a101" style="rounded=1;whiteSpace=wrap;html=1;fillColor=#647687;fontColor=#ffffff;strokeColor=#314354;" parent="1" vertex="1">
          <mxGeometry x="680" y="390" width="120" height="30" as="geometry" />
        </mxCell>
        <mxCell id="GjvaQLcrxtEalhyeeRgq-8" style="edgeStyle=orthogonalEdgeStyle;rounded=0;orthogonalLoop=1;jettySize=auto;html=1;exitX=0.5;exitY=1;exitDx=0;exitDy=0;" parent="1" source="GjvaQLcrxtEalhyeeRgq-6" target="GjvaQLcrxtEalhyeeRgq-6" edge="1">
          <mxGeometry relative="1" as="geometry" />
        </mxCell>
        <mxCell id="GjvaQLcrxtEalhyeeRgq-9" value="erp_px_cat_g1v2" style="rounded=1;whiteSpace=wrap;html=1;fillColor=#647687;fontColor=#ffffff;strokeColor=#314354;" parent="1" vertex="1">
          <mxGeometry x="680" y="450" width="120" height="30" as="geometry" />
        </mxCell>
        <mxCell id="GjvaQLcrxtEalhyeeRgq-11" value="crm_prd_info" style="rounded=1;whiteSpace=wrap;html=1;fillColor=#647687;strokeColor=#314354;fontColor=#ffffff;" parent="1" vertex="1">
          <mxGeometry x="680" y="220" width="120" height="30" as="geometry" />
        </mxCell>
        <mxCell id="GjvaQLcrxtEalhyeeRgq-16" style="edgeStyle=orthogonalEdgeStyle;rounded=0;orthogonalLoop=1;jettySize=auto;html=1;exitX=1;exitY=0.5;exitDx=0;exitDy=0;" parent="1" source="lgsPyOXCFTLLYFmnP0r0-17" edge="1">
          <mxGeometry relative="1" as="geometry">
            <mxPoint x="680" y="231" as="targetPoint" />
          </mxGeometry>
        </mxCell>
        <mxCell id="FaoK6viXNzpFEANBahMM-1" value="&lt;span style=&quot;font-size: 22px;&quot;&gt;ETL&lt;/span&gt;" style="text;html=1;align=center;verticalAlign=middle;resizable=0;points=[];autosize=1;strokeColor=none;fillColor=none;" parent="1" vertex="1">
          <mxGeometry x="65" width="60" height="40" as="geometry" />
        </mxCell>
      </root>
    </mxGraphModel>
  </diagram>
</mxfile>
